<?xml version="1.0" standalone="no"?>
<!DOCTYPE svg PUBLIC "-//W3C//DTD SVG 20010904//EN"
 "http://www.w3.org/TR/2001/REC-SVG-20010904/DTD/svg10.dtd">
<svg version="1.0" xmlns="http://www.w3.org/2000/svg"
 width="300.000000pt" height="300.000000pt" viewBox="0 0 300.000000 300.000000"
 preserveAspectRatio="xMidYMid meet">
<metadata>
Created by potrace 1.14, written by Peter Selinger 2001-2017
</metadata>
<g transform="translate(0.000000,300.000000) scale(0.100000,-0.100000)"
fill="#000000" stroke="none">
<path d="M0 1500 l0 -1500 1500 0 1500 0 0 1500 0 1500 -1500 0 -1500 0 0
-1500z m2053 183 c-91 -269 -204 -605 -252 -748 l-88 -260 -123 -3 c-114 -2
-122 -1 -115 15 3 10 117 344 251 742 135 398 247 728 250 733 3 4 59 8 124 8
l118 0 -165 -487z m-743 352 c0 -63 2 -115 5 -115 2 0 48 16 102 35 53 20 102
34 108 31 11 -4 81 -214 74 -220 -2 -2 -49 -18 -104 -36 -55 -18 -102 -34
-104 -36 -2 -2 26 -43 63 -92 36 -49 66 -92 66 -95 0 -5 -148 -123 -177 -140
-7 -5 -36 27 -80 88 -37 52 -70 95 -73 94 -4 0 -103 -137 -131 -181 -9 -14
-200 131 -192 146 4 6 31 44 60 84 30 40 56 79 59 86 3 8 -31 24 -101 46 -58
19 -105 38 -105 43 0 11 61 210 65 216 3 2 149 -43 213 -67 9 -3 12 23 12 112
l0 116 120 0 120 0 0 -115z"/>
</g>
</svg>
